<?xml version="1.0" encoding="iso-8859-1"?>
<!-- Generator: Adobe Illustrator 23.0.0, SVG Export Plug-In . SVG Version: 6.00 Build 0)  -->
<svg version="1.1" xmlns="http://www.w3.org/2000/svg" xmlns:xlink="http://www.w3.org/1999/xlink" x="0px" y="0px"
	 viewBox="0 0 512 512" style="enable-background:new 0 0 512 512;" xml:space="preserve">
<g id="&#x56FE;&#x5C42;_1" style="display:none;">
	<g style="display:inline;">
		<g>
			<line style="fill:none;stroke:#000000;stroke-miterlimit:10;" x1="404.78" y1="409" x2="259.85" y2="276.7"/>
			<line style="fill:none;stroke:#000000;stroke-miterlimit:10;" x1="464.11" y1="409" x2="289.45" y2="249.56"/>
			<path style="fill:none;stroke:#000000;stroke-miterlimit:10;" d="M230.19,249.62l-59.875-54.659
				c-3.83-3.496-4.1-9.436-0.604-13.265l14.308-15.672c3.496-3.829,9.435-4.1,13.264-0.604l62.506,57.06"/>
			<g>
				<polygon points="449.41,449 448.6,449 449.04,449.4 449.41,449 				"/>
			</g>
			<g>
				<line style="fill:none;stroke:#000000;stroke-miterlimit:10;" x1="449.41" y1="449" x2="448.6" y2="449"/>
				<path style="fill:none;stroke:#000000;stroke-miterlimit:10;" d="M464.5,409.5L448.6,449H72.12c-0.06,0-0.13,0-0.19-0.01
					L55.26,410l408.85-0.5H464.5z"/>
				<g>
					<path style="fill:none;stroke:#000000;stroke-miterlimit:10;" d="M451.19,47l-43.62,40H55.16C50.65,87,47,83.35,47,78.84V55.16
						c0-4.51,3.65-8.16,8.16-8.16H451.19z"/>
					<path style="fill:none;stroke:#000000;stroke-miterlimit:10;" d="M407.57,87l43.62-40h1.01l24,26.19
						c1.42,1.55,1.32,3.95-0.23,5.37L466.76,87"/>
					<polyline style="fill:none;stroke:#000000;stroke-miterlimit:10;" points="466.76,87 289.45,249.56 259.85,276.7 115.54,409 
											"/>
					<polyline style="fill:none;stroke:#000000;stroke-miterlimit:10;" points="407.57,87 259.79,222.48 230.19,249.62 55.26,410 
											"/>
				</g>
			</g>
		</g>
	</g>
	<g style="display:inline;">
		<g>
			<line style="fill:none;stroke:#000000;stroke-miterlimit:10;" x1="1120.78" y1="695" x2="975.85" y2="562.7"/>
			<line style="fill:none;stroke:#000000;stroke-miterlimit:10;" x1="1180.11" y1="695" x2="1005.45" y2="535.56"/>
			<path style="fill:none;stroke:#000000;stroke-miterlimit:10;" d="M946.19,535.62l-59.875-54.659
				c-3.83-3.496-4.1-9.436-0.604-13.265l14.308-15.672c3.496-3.829,9.435-4.1,13.264-0.604l62.506,57.06"/>
			<g>
				<polygon points="1165.41,735 1164.6,735 1165.04,735.4 1165.41,735 				"/>
			</g>
			<g>
				<line style="fill:none;stroke:#000000;stroke-miterlimit:10;" x1="1165.41" y1="735" x2="1164.6" y2="735"/>
				<path style="fill:none;stroke:#000000;stroke-miterlimit:10;" d="M1180.5,695.5l-15.9,39.5H788.12c-0.06,0-0.13,0-0.19-0.01
					L771.26,696l408.85-0.5H1180.5z"/>
				<g>
					<path style="fill:none;stroke:#000000;stroke-miterlimit:10;" d="M1167.19,333l-43.62,40H771.16c-4.51,0-8.16-3.65-8.16-8.16
						v-23.68c0-4.51,3.65-8.16,8.16-8.16H1167.19z"/>
					<path style="fill:none;stroke:#000000;stroke-miterlimit:10;" d="M1123.57,373l43.62-40h1.01l24,26.19
						c1.42,1.55,1.32,3.95-0.23,5.37l-9.21,8.44"/>
					<polyline style="fill:none;stroke:#000000;stroke-miterlimit:10;" points="1182.76,373 1005.45,535.56 975.85,562.7 
						831.54,695 					"/>
					<polyline style="fill:none;stroke:#000000;stroke-miterlimit:10;" points="1123.57,373 975.79,508.48 946.19,535.62 
						771.26,696 					"/>
				</g>
			</g>
		</g>
	</g>
	<g style="display:inline;">
		<rect x="-144.5" y="0.5" style="fill:#6D28D9;" width="79" height="79"/>
		<path d="M-66,1v78h-78V1H-66 M-65,0h-80v80h80V0L-65,0z"/>
	</g>
	<g style="display:inline;">
		<rect x="-144.5" y="115.5" style="fill:#7C3AED;" width="79" height="79"/>
		<path d="M-66,116v78h-78v-78H-66 M-65,115h-80v80h80V115L-65,115z"/>
	</g>
	<g style="display:inline;">
		<rect x="-144.5" y="230.5" style="fill:#8B5CF6;" width="79" height="79"/>
		<path d="M-66,231v78h-78v-78H-66 M-65,230h-80v80h80V230L-65,230z"/>
	</g>
</g>
<g id="&#x56FE;&#x5C42;_2">
	<g>
		<path style="fill:#6D28D9;" d="M389.622,456.92L157.94,199.611c-7.465-8.291-6.796-21.064,1.495-28.529l1.868-1.682
			c19.759-17.791,50.199-16.196,67.99,3.563l212.986,236.545c13.093,14.541,11.919,36.942-2.622,50.035l0,0
			C425.116,472.635,402.714,471.461,389.622,456.92z"/>
	</g>
	<g>
		<path style="fill:#7C3AED;" d="M412.5,113h-316c-19.33,0-35-15.67-35-35v0c0-19.33,15.67-35,35-35h316c19.33,0,35,15.67,35,35v0
			C447.5,97.33,431.83,113,412.5,113z"/>
	</g>
	<g>
		<path style="fill:#8B5CF6;" d="M441.097,102.522L122.314,456.569c-12.985,14.422-35.203,15.586-49.625,2.601l0,0
			c-14.422-12.985-15.586-35.203-2.601-49.625L388.872,55.498c12.985-14.422,35.203-15.586,49.625-2.601l0,0
			C452.918,65.883,454.083,88.1,441.097,102.522z"/>
	</g>
	<g>
		<path style="fill:#7C3AED;" d="M416.5,469h-321c-19.33,0-35-15.67-35-35v0c0-19.33,15.67-35,35-35h321c19.33,0,35,15.67,35,35v0
			C451.5,453.33,435.83,469,416.5,469z"/>
	</g>
	<g>
		<path style="fill:#6D28D9;" d="M1649.07,489.307L1365.3,254.761c-3.69-3.05-4.209-8.514-1.159-12.204l2.875-3.478
			c12.881-15.584,35.957-17.776,51.541-4.895l262.233,216.745c10.172,8.408,11.603,23.47,3.195,33.642l-1.273,1.541
			C1674.304,496.285,1659.242,497.715,1649.07,489.307z"/>
	</g>
	<g>
		<path style="fill:#7C3AED;" d="M1662,117h-338.562c-13.497,0-24.438-10.941-24.438-24.438v0C1299,78.444,1310.444,67,1324.562,67
			H1662c13.807,0,25,11.193,25,25v0C1687,105.807,1675.807,117,1662,117z"/>
	</g>
	<g>
		<path style="fill:#8B5CF6;" d="M1683.983,108.042l-341.212,378.957c-8.211,9.119-22.259,9.855-31.378,1.645l-4.258-3.834
			c-9.119-8.211-9.855-22.259-1.645-31.378l341.212-378.957c8.211-9.119,22.259-9.855,31.378-1.645l4.258,3.834
			C1691.458,84.874,1692.194,98.923,1683.983,108.042z"/>
	</g>
	<g>
		<path style="fill:#7C3AED;" d="M1665,495h-341c-13.807,0-25-11.193-25-25v0c0-13.807,11.193-25,25-25h341
			c13.807,0,25,11.193,25,25v0C1690,483.807,1678.807,495,1665,495z"/>
	</g>
</g>
</svg>
